<svg width="158" height="24" viewBox="0 0 158 24" fill="none" xmlns="http://www.w3.org/2000/svg" class="css-12tdv6n">
  <path
    d="M14.412 6.283v11.434c0 4.254-2.477 6.283-6.902 6.283H0V0h7.47c4.425 0 6.942 1.951 6.942 6.283zm-2.07 0c0-3.083-1.625-4.566-4.872-4.566H2.03v20.527h5.44c3.247 0 4.871-1.483 4.871-4.527V6.283zm-.57 0v11.434c0 2.77-1.42 4.059-4.302 4.059H2.598V2.224H7.47c2.882 0 4.303 1.288 4.303 4.059zm-1.988 0c0-1.678-.61-2.38-2.314-2.38H4.587V20.02H7.47c1.705 0 2.314-.703 2.314-2.342V6.283zM19.486 16.858V24h-2.03V0h7.673c4.425 0 6.901 2.03 6.901 6.283v4.332c0 4.253-2.476 6.283-6.901 6.283h-5.643v-.04zm0-15.14v13.424h5.643c3.329 0 4.871-1.522 4.871-4.527V6.283c0-3.083-1.624-4.566-4.871-4.566h-5.643zm.609.506h5.074c2.842 0 4.263 1.288 4.263 4.059v4.332c0 2.77-1.421 4.058-4.303 4.058h-5.034V2.224zm0 15.103h1.989v6.634h-1.99v-6.634zm1.989-13.425v9.015h3.085c1.705 0 2.314-.702 2.314-2.341V6.283c0-1.678-.609-2.38-2.314-2.38h-3.085zm1.908 13.425h2.111l3.491 6.634h-2.11l-3.492-6.634zM32.355 24h-2.111l-3.491-6.634a8.297 8.297 0 001.826-.43L32.355 24zM34.344 0h2.03v24h-2.03V0zm2.639 0h1.989v24h-1.99V0zM40.718 0h2.03L47.7 24h-2.03L40.718 0zm12.585 0h2.03L50.38 24h-2.07L43.355 0h2.03l3.938 19.785L53.303 0zM55.9 0h2.03l-4.953 24h-2.03l4.953-24zM72.626 1.717h-10.96v20.527h10.96v1.717h-12.99V0h12.99v1.717zm0 .507v1.678h-8.362v6.01h7.226v1.717h-9.215V2.224h10.351zm-8.362 11.63v6.204h8.362v1.718H62.274v-9.64h9.216v1.679h-7.226v.039zM76.767 16.858V24h-2.03V0h7.673c4.425 0 6.901 2.03 6.901 6.283v4.332c0 4.253-2.476 6.283-6.901 6.283h-5.643v-.04zm0-15.14v13.424h5.643c3.329 0 4.871-1.522 4.871-4.527V6.283c0-3.083-1.623-4.566-4.871-4.566h-5.643zm.609.506h5.075c2.882 0 4.303 1.288 4.303 4.059v4.332c0 2.77-1.421 4.058-4.303 4.058h-5.075V2.224zm0 15.103h1.99v6.634h-1.99v-6.634zm1.99-13.425v9.015h3.085c1.705 0 2.314-.702 2.314-2.341V6.283c0-1.678-.61-2.38-2.314-2.38h-3.086zm1.907 13.425h2.111l3.492 6.634h-2.112l-3.49-6.634zM89.636 24h-2.11l-3.492-6.634c.65-.078 1.299-.234 1.827-.43L89.636 24zM95.279 0h2.03l-5.156 24h-2.03l5.156-24zm-1.462 19.005h10.19L105.103 24h-2.03l-.731-3.239h-6.86L94.792 24h-2.03l1.055-4.995zm10.068-.468h-9.946L97.918 0h2.07l3.897 18.537zM98.932 4.02l-2.598 12.76h5.237L98.932 4.02zM102.586 0l5.156 24h-2.03l-5.156-24h2.03zM111.518 0h2.029l-3.207 24h-2.029l3.207-24zm2.679 0h2.03l5.967 24h-2.029l-4.75-19.59L112.939 24h-1.99l3.248-24zm11.529 0h2.03l-5.277 22.946L116.836 0h1.989l3.654 15.258L125.726 0zm2.68 0h2.029l3.695 24h-2.03l-2.761-19.473L124.874 24h-1.989l5.521-24zm4.709 0l3.613 24h-1.989l-3.654-24h2.03zM142.492 0h2.03l-5.196 24h-2.03l5.196-24zm-1.461 19.005h10.189L152.316 24h-2.029l-.731-3.239h-6.861l-.69 3.239h-2.03l1.056-4.995zm10.027-.468h-9.946L145.09 0h2.071l3.897 18.537zM146.146 4.02l-2.639 12.76h5.237l-2.598-12.76zM149.759 0l5.156 24h-2.03l-5.156-24h2.03z"
    fill="currentColor"></path>
</svg>